<?xml version="1.0" encoding="UTF-8"?>
<svg xmlns="http://www.w3.org/2000/svg" width="512" height="512" viewBox="0 0 512 512">
<rect width="512" height="512" fill="#05060d" rx="32" ry="32" />
<g><line x1="186.04" y1="205.16" x2="299.16" y2="244.27" stroke="#52e5ff" stroke-width="4" stroke-linecap="round" opacity="0.9" /><line x1="186.04" y1="205.16" x2="260.26" y2="40.96" stroke="#52e5ff" stroke-width="4" stroke-linecap="round" opacity="0.9" /><line x1="186.04" y1="205.16" x2="248.61" y2="402.79" stroke="#52e5ff" stroke-width="4" stroke-linecap="round" opacity="0.9" /><line x1="186.04" y1="205.16" x2="40.96" y2="247.66" stroke="#52e5ff" stroke-width="4" stroke-linecap="round" opacity="0.9" /><line x1="299.16" y1="244.27" x2="380.37" y2="105.10" stroke="#52e5ff" stroke-width="4" stroke-linecap="round" opacity="0.9" /><line x1="299.16" y1="244.27" x2="367.80" y2="423.44" stroke="#52e5ff" stroke-width="4" stroke-linecap="round" opacity="0.9" /><line x1="299.16" y1="244.27" x2="171.88" y2="283.05" stroke="#52e5ff" stroke-width="4" stroke-linecap="round" opacity="0.9" /><line x1="260.26" y1="40.96" x2="380.37" y2="105.10" stroke="#52e5ff" stroke-width="4" stroke-linecap="round" opacity="0.9" /><line x1="260.26" y1="40.96" x2="346.10" y2="248.92" stroke="#52e5ff" stroke-width="4" stroke-linecap="round" opacity="0.9" /><line x1="260.26" y1="40.96" x2="93.53" y2="85.99" stroke="#52e5ff" stroke-width="4" stroke-linecap="round" opacity="0.9" /><line x1="380.37" y1="105.10" x2="471.04" y2="293.69" stroke="#52e5ff" stroke-width="4" stroke-linecap="round" opacity="0.9" /><line x1="380.37" y1="105.10" x2="236.78" y2="146.15" stroke="#52e5ff" stroke-width="4" stroke-linecap="round" opacity="0.9" /><line x1="248.61" y1="402.79" x2="367.80" y2="423.44" stroke="#52e5ff" stroke-width="4" stroke-linecap="round" opacity="0.9" /><line x1="248.61" y1="402.79" x2="346.10" y2="248.92" stroke="#52e5ff" stroke-width="4" stroke-linecap="round" opacity="0.9" /><line x1="248.61" y1="402.79" x2="85.25" y2="456.31" stroke="#52e5ff" stroke-width="4" stroke-linecap="round" opacity="0.9" /><line x1="367.80" y1="423.44" x2="471.04" y2="293.69" stroke="#52e5ff" stroke-width="4" stroke-linecap="round" opacity="0.9" /><line x1="367.80" y1="423.44" x2="226.71" y2="471.04" stroke="#52e5ff" stroke-width="4" stroke-linecap="round" opacity="0.9" /><line x1="346.10" y1="248.92" x2="471.04" y2="293.69" stroke="#52e5ff" stroke-width="4" stroke-linecap="round" opacity="0.9" /><line x1="346.10" y1="248.92" x2="154.80" y2="307.79" stroke="#52e5ff" stroke-width="4" stroke-linecap="round" opacity="0.9" /><line x1="471.04" y1="293.69" x2="309.69" y2="345.57" stroke="#52e5ff" stroke-width="4" stroke-linecap="round" opacity="0.9" /><line x1="40.96" y1="247.66" x2="171.88" y2="283.05" stroke="#52e5ff" stroke-width="4" stroke-linecap="round" opacity="0.9" /><line x1="40.96" y1="247.66" x2="93.53" y2="85.99" stroke="#52e5ff" stroke-width="4" stroke-linecap="round" opacity="0.9" /><line x1="40.96" y1="247.66" x2="85.25" y2="456.31" stroke="#52e5ff" stroke-width="4" stroke-linecap="round" opacity="0.9" /><line x1="171.88" y1="283.05" x2="236.78" y2="146.15" stroke="#52e5ff" stroke-width="4" stroke-linecap="round" opacity="0.9" /><line x1="171.88" y1="283.05" x2="226.71" y2="471.04" stroke="#52e5ff" stroke-width="4" stroke-linecap="round" opacity="0.9" /><line x1="93.53" y1="85.99" x2="236.78" y2="146.15" stroke="#52e5ff" stroke-width="4" stroke-linecap="round" opacity="0.9" /><line x1="93.53" y1="85.99" x2="154.80" y2="307.79" stroke="#52e5ff" stroke-width="4" stroke-linecap="round" opacity="0.9" /><line x1="236.78" y1="146.15" x2="309.69" y2="345.57" stroke="#52e5ff" stroke-width="4" stroke-linecap="round" opacity="0.9" /><line x1="85.25" y1="456.31" x2="226.71" y2="471.04" stroke="#52e5ff" stroke-width="4" stroke-linecap="round" opacity="0.9" /><line x1="85.25" y1="456.31" x2="154.80" y2="307.79" stroke="#52e5ff" stroke-width="4" stroke-linecap="round" opacity="0.9" /><line x1="226.71" y1="471.04" x2="309.69" y2="345.57" stroke="#52e5ff" stroke-width="4" stroke-linecap="round" opacity="0.9" /><line x1="154.80" y1="307.79" x2="309.69" y2="345.57" stroke="#52e5ff" stroke-width="4" stroke-linecap="round" opacity="0.9" /></g>
</svg>