<?xml version="1.0" encoding="UTF-8"?>
<svg xmlns="http://www.w3.org/2000/svg" width="512" height="512" viewBox="0 0 512 512">
<rect width="512" height="512" fill="#05060d" rx="32" ry="32" />
<g><line x1="471.04" y1="440.13" x2="464.98" y2="424.63" stroke="#52e5ff" stroke-width="4" stroke-linecap="round" opacity="0.9" /><line x1="464.98" y1="424.63" x2="444.90" y2="407.57" stroke="#52e5ff" stroke-width="4" stroke-linecap="round" opacity="0.9" /><line x1="444.90" y1="407.57" x2="411.62" y2="390.05" stroke="#52e5ff" stroke-width="4" stroke-linecap="round" opacity="0.9" /><line x1="411.62" y1="390.05" x2="367.01" y2="373.29" stroke="#52e5ff" stroke-width="4" stroke-linecap="round" opacity="0.9" /><line x1="367.01" y1="373.29" x2="313.90" y2="358.56" stroke="#52e5ff" stroke-width="4" stroke-linecap="round" opacity="0.9" /><line x1="313.90" y1="358.56" x2="256.06" y2="347.03" stroke="#52e5ff" stroke-width="4" stroke-linecap="round" opacity="0.9" /><line x1="256.06" y1="347.03" x2="197.81" y2="339.65" stroke="#52e5ff" stroke-width="4" stroke-linecap="round" opacity="0.9" /><line x1="197.81" y1="339.65" x2="143.70" y2="337.08" stroke="#52e5ff" stroke-width="4" stroke-linecap="round" opacity="0.9" /><line x1="143.70" y1="337.08" x2="98.01" y2="339.54" stroke="#52e5ff" stroke-width="4" stroke-linecap="round" opacity="0.9" /><line x1="98.01" y1="339.54" x2="64.26" y2="346.81" stroke="#52e5ff" stroke-width="4" stroke-linecap="round" opacity="0.9" /><line x1="64.26" y1="346.81" x2="44.87" y2="358.26" stroke="#52e5ff" stroke-width="4" stroke-linecap="round" opacity="0.9" /><line x1="44.87" y1="358.26" x2="40.96" y2="372.93" stroke="#52e5ff" stroke-width="4" stroke-linecap="round" opacity="0.9" /><line x1="40.96" y1="372.93" x2="52.36" y2="389.65" stroke="#52e5ff" stroke-width="4" stroke-linecap="round" opacity="0.9" /><line x1="52.36" y1="389.65" x2="77.71" y2="407.16" stroke="#52e5ff" stroke-width="4" stroke-linecap="round" opacity="0.9" /><line x1="77.71" y1="407.16" x2="114.79" y2="424.25" stroke="#52e5ff" stroke-width="4" stroke-linecap="round" opacity="0.9" /><line x1="114.79" y1="424.25" x2="160.72" y2="439.80" stroke="#52e5ff" stroke-width="4" stroke-linecap="round" opacity="0.9" /><line x1="160.72" y1="439.80" x2="212.29" y2="452.89" stroke="#52e5ff" stroke-width="4" stroke-linecap="round" opacity="0.9" /><line x1="212.29" y1="452.89" x2="266.17" y2="462.77" stroke="#52e5ff" stroke-width="4" stroke-linecap="round" opacity="0.9" /><line x1="266.17" y1="462.77" x2="319.08" y2="468.92" stroke="#52e5ff" stroke-width="4" stroke-linecap="round" opacity="0.9" /><line x1="319.08" y1="468.92" x2="367.90" y2="471.04" stroke="#52e5ff" stroke-width="4" stroke-linecap="round" opacity="0.9" /><line x1="367.90" y1="471.04" x2="409.79" y2="469.02" stroke="#52e5ff" stroke-width="4" stroke-linecap="round" opacity="0.9" /><line x1="409.79" y1="469.02" x2="442.23" y2="462.95" stroke="#52e5ff" stroke-width="4" stroke-linecap="round" opacity="0.9" /><line x1="442.23" y1="462.95" x2="463.16" y2="453.15" stroke="#52e5ff" stroke-width="4" stroke-linecap="round" opacity="0.9" /><line x1="463.16" y1="453.15" x2="471.04" y2="440.13" stroke="#52e5ff" stroke-width="4" stroke-linecap="round" opacity="0.9" /><line x1="301.17" y1="391.36" x2="296.66" y2="382.37" stroke="#52e5ff" stroke-width="4" stroke-linecap="round" opacity="0.9" /><line x1="296.66" y1="382.37" x2="284.30" y2="372.58" stroke="#52e5ff" stroke-width="4" stroke-linecap="round" opacity="0.9" /><line x1="284.30" y1="372.58" x2="264.75" y2="362.64" stroke="#52e5ff" stroke-width="4" stroke-linecap="round" opacity="0.9" /><line x1="264.75" y1="362.64" x2="239.23" y2="353.24" stroke="#52e5ff" stroke-width="4" stroke-linecap="round" opacity="0.9" /><line x1="239.23" y1="353.24" x2="209.43" y2="345.07" stroke="#52e5ff" stroke-width="4" stroke-linecap="round" opacity="0.9" /><line x1="209.43" y1="345.07" x2="177.41" y2="338.71" stroke="#52e5ff" stroke-width="4" stroke-linecap="round" opacity="0.9" /><line x1="177.41" y1="338.71" x2="145.50" y2="334.68" stroke="#52e5ff" stroke-width="4" stroke-linecap="round" opacity="0.9" /><line x1="145.50" y1="334.68" x2="116.04" y2="333.28" stroke="#52e5ff" stroke-width="4" stroke-linecap="round" opacity="0.9" /><line x1="116.04" y1="333.28" x2="91.21" y2="334.62" stroke="#52e5ff" stroke-width="4" stroke-linecap="round" opacity="0.9" /><line x1="91.21" y1="334.62" x2="72.83" y2="338.59" stroke="#52e5ff" stroke-width="4" stroke-linecap="round" opacity="0.9" /><line x1="72.83" y1="338.59" x2="62.18" y2="344.90" stroke="#52e5ff" stroke-width="4" stroke-linecap="round" opacity="0.9" /><line x1="62.18" y1="344.90" x2="59.93" y2="353.04" stroke="#52e5ff" stroke-width="4" stroke-linecap="round" opacity="0.9" /><line x1="59.93" y1="353.04" x2="66.11" y2="362.42" stroke="#52e5ff" stroke-width="4" stroke-linecap="round" opacity="0.9" /><line x1="66.11" y1="362.42" x2="80.11" y2="372.35" stroke="#52e5ff" stroke-width="4" stroke-linecap="round" opacity="0.9" /><line x1="80.11" y1="372.35" x2="100.82" y2="382.15" stroke="#52e5ff" stroke-width="4" stroke-linecap="round" opacity="0.9" /><line x1="100.82" y1="382.15" x2="126.73" y2="391.16" stroke="#52e5ff" stroke-width="4" stroke-linecap="round" opacity="0.9" /><line x1="126.73" y1="391.16" x2="156.03" y2="398.82" stroke="#52e5ff" stroke-width="4" stroke-linecap="round" opacity="0.9" /><line x1="156.03" y1="398.82" x2="186.79" y2="404.65" stroke="#52e5ff" stroke-width="4" stroke-linecap="round" opacity="0.9" /><line x1="186.79" y1="404.65" x2="217.03" y2="408.30" stroke="#52e5ff" stroke-width="4" stroke-linecap="round" opacity="0.9" /><line x1="217.03" y1="408.30" x2="244.85" y2="409.56" stroke="#52e5ff" stroke-width="4" stroke-linecap="round" opacity="0.9" /><line x1="244.85" y1="409.56" x2="268.51" y2="408.35" stroke="#52e5ff" stroke-width="4" stroke-linecap="round" opacity="0.9" /><line x1="268.51" y1="408.35" x2="286.51" y2="404.76" stroke="#52e5ff" stroke-width="4" stroke-linecap="round" opacity="0.9" /><line x1="286.51" y1="404.76" x2="297.66" y2="398.98" stroke="#52e5ff" stroke-width="4" stroke-linecap="round" opacity="0.9" /><line x1="297.66" y1="398.98" x2="301.17" y2="391.36" stroke="#52e5ff" stroke-width="4" stroke-linecap="round" opacity="0.9" /><line x1="158.19" y1="299.70" x2="158.19" y2="299.70" stroke="#52e5ff" stroke-width="4" stroke-linecap="round" opacity="0.9" /><line x1="158.19" y1="299.70" x2="158.19" y2="299.70" stroke="#52e5ff" stroke-width="4" stroke-linecap="round" opacity="0.9" /><line x1="158.19" y1="299.70" x2="158.19" y2="299.70" stroke="#52e5ff" stroke-width="4" stroke-linecap="round" opacity="0.9" /><line x1="158.19" y1="299.70" x2="158.19" y2="299.70" stroke="#52e5ff" stroke-width="4" stroke-linecap="round" opacity="0.9" /><line x1="158.19" y1="299.70" x2="158.19" y2="299.70" stroke="#52e5ff" stroke-width="4" stroke-linecap="round" opacity="0.9" /><line x1="158.19" y1="299.70" x2="158.19" y2="299.70" stroke="#52e5ff" stroke-width="4" stroke-linecap="round" opacity="0.9" /><line x1="158.19" y1="299.70" x2="158.19" y2="299.70" stroke="#52e5ff" stroke-width="4" stroke-linecap="round" opacity="0.9" /><line x1="158.19" y1="299.70" x2="158.19" y2="299.70" stroke="#52e5ff" stroke-width="4" stroke-linecap="round" opacity="0.9" /><line x1="158.19" y1="299.70" x2="158.19" y2="299.70" stroke="#52e5ff" stroke-width="4" stroke-linecap="round" opacity="0.9" /><line x1="158.19" y1="299.70" x2="158.19" y2="299.70" stroke="#52e5ff" stroke-width="4" stroke-linecap="round" opacity="0.9" /><line x1="158.19" y1="299.70" x2="158.19" y2="299.70" stroke="#52e5ff" stroke-width="4" stroke-linecap="round" opacity="0.9" /><line x1="158.19" y1="299.70" x2="158.19" y2="299.70" stroke="#52e5ff" stroke-width="4" stroke-linecap="round" opacity="0.9" /><line x1="158.19" y1="299.70" x2="158.19" y2="299.70" stroke="#52e5ff" stroke-width="4" stroke-linecap="round" opacity="0.9" /><line x1="158.19" y1="299.70" x2="158.19" y2="299.70" stroke="#52e5ff" stroke-width="4" stroke-linecap="round" opacity="0.9" /><line x1="158.19" y1="299.70" x2="158.19" y2="299.70" stroke="#52e5ff" stroke-width="4" stroke-linecap="round" opacity="0.9" /><line x1="158.19" y1="299.70" x2="158.19" y2="299.70" stroke="#52e5ff" stroke-width="4" stroke-linecap="round" opacity="0.9" /><line x1="158.19" y1="299.70" x2="158.19" y2="299.70" stroke="#52e5ff" stroke-width="4" stroke-linecap="round" opacity="0.9" /><line x1="158.19" y1="299.70" x2="158.19" y2="299.70" stroke="#52e5ff" stroke-width="4" stroke-linecap="round" opacity="0.9" /><line x1="158.19" y1="299.70" x2="158.19" y2="299.70" stroke="#52e5ff" stroke-width="4" stroke-linecap="round" opacity="0.9" /><line x1="158.19" y1="299.70" x2="158.19" y2="299.70" stroke="#52e5ff" stroke-width="4" stroke-linecap="round" opacity="0.9" /><line x1="158.19" y1="299.70" x2="158.19" y2="299.70" stroke="#52e5ff" stroke-width="4" stroke-linecap="round" opacity="0.9" /><line x1="158.19" y1="299.70" x2="158.19" y2="299.70" stroke="#52e5ff" stroke-width="4" stroke-linecap="round" opacity="0.9" /><line x1="158.19" y1="299.70" x2="158.19" y2="299.70" stroke="#52e5ff" stroke-width="4" stroke-linecap="round" opacity="0.9" /><line x1="158.19" y1="299.70" x2="158.19" y2="299.70" stroke="#52e5ff" stroke-width="4" stroke-linecap="round" opacity="0.9" /><line x1="73.50" y1="187.80" x2="79.33" y2="197.84" stroke="#52e5ff" stroke-width="4" stroke-linecap="round" opacity="0.9" /><line x1="79.33" y1="197.84" x2="92.66" y2="208.47" stroke="#52e5ff" stroke-width="4" stroke-linecap="round" opacity="0.9" /><line x1="92.66" y1="208.47" x2="112.43" y2="218.97" stroke="#52e5ff" stroke-width="4" stroke-linecap="round" opacity="0.9" /><line x1="112.43" y1="218.97" x2="137.19" y2="228.64" stroke="#52e5ff" stroke-width="4" stroke-linecap="round" opacity="0.9" /><line x1="137.19" y1="228.64" x2="165.23" y2="236.85" stroke="#52e5ff" stroke-width="4" stroke-linecap="round" opacity="0.9" /><line x1="165.23" y1="236.85" x2="194.69" y2="243.10" stroke="#52e5ff" stroke-width="4" stroke-linecap="round" opacity="0.9" /><line x1="194.69" y1="243.10" x2="223.67" y2="247.02" stroke="#52e5ff" stroke-width="4" stroke-linecap="round" opacity="0.9" /><line x1="223.67" y1="247.02" x2="250.35" y2="248.37" stroke="#52e5ff" stroke-width="4" stroke-linecap="round" opacity="0.9" /><line x1="250.35" y1="248.37" x2="273.05" y2="247.08" stroke="#52e5ff" stroke-width="4" stroke-linecap="round" opacity="0.9" /><line x1="273.05" y1="247.08" x2="290.33" y2="243.22" stroke="#52e5ff" stroke-width="4" stroke-linecap="round" opacity="0.9" /><line x1="290.33" y1="243.22" x2="301.04" y2="237.02" stroke="#52e5ff" stroke-width="4" stroke-linecap="round" opacity="0.9" /><line x1="301.04" y1="237.02" x2="304.41" y2="228.85" stroke="#52e5ff" stroke-width="4" stroke-linecap="round" opacity="0.9" /><line x1="304.41" y1="228.85" x2="300.12" y2="219.21" stroke="#52e5ff" stroke-width="4" stroke-linecap="round" opacity="0.9" /><line x1="300.12" y1="219.21" x2="288.30" y2="208.72" stroke="#52e5ff" stroke-width="4" stroke-linecap="round" opacity="0.9" /><line x1="288.30" y1="208.72" x2="269.60" y2="198.08" stroke="#52e5ff" stroke-width="4" stroke-linecap="round" opacity="0.9" /><line x1="269.60" y1="198.08" x2="245.19" y2="188.02" stroke="#52e5ff" stroke-width="4" stroke-linecap="round" opacity="0.9" /><line x1="245.19" y1="188.02" x2="216.69" y2="179.27" stroke="#52e5ff" stroke-width="4" stroke-linecap="round" opacity="0.9" /><line x1="216.69" y1="179.27" x2="186.08" y2="172.48" stroke="#52e5ff" stroke-width="4" stroke-linecap="round" opacity="0.9" /><line x1="186.08" y1="172.48" x2="155.57" y2="168.17" stroke="#52e5ff" stroke-width="4" stroke-linecap="round" opacity="0.9" /><line x1="155.57" y1="168.17" x2="127.38" y2="166.67" stroke="#52e5ff" stroke-width="4" stroke-linecap="round" opacity="0.9" /><line x1="127.38" y1="166.67" x2="103.61" y2="168.10" stroke="#52e5ff" stroke-width="4" stroke-linecap="round" opacity="0.9" /><line x1="103.61" y1="168.10" x2="85.98" y2="172.35" stroke="#52e5ff" stroke-width="4" stroke-linecap="round" opacity="0.9" /><line x1="85.98" y1="172.35" x2="75.73" y2="179.09" stroke="#52e5ff" stroke-width="4" stroke-linecap="round" opacity="0.9" /><line x1="75.73" y1="179.09" x2="73.50" y2="187.80" stroke="#52e5ff" stroke-width="4" stroke-linecap="round" opacity="0.9" /><line x1="66.23" y1="81.03" x2="76.50" y2="99.77" stroke="#52e5ff" stroke-width="4" stroke-linecap="round" opacity="0.9" /><line x1="76.50" y1="99.77" x2="99.73" y2="119.44" stroke="#52e5ff" stroke-width="4" stroke-linecap="round" opacity="0.9" /><line x1="99.73" y1="119.44" x2="133.88" y2="138.66" stroke="#52e5ff" stroke-width="4" stroke-linecap="round" opacity="0.9" /><line x1="133.88" y1="138.66" x2="176.33" y2="156.19" stroke="#52e5ff" stroke-width="4" stroke-linecap="round" opacity="0.9" /><line x1="176.33" y1="156.19" x2="224.11" y2="170.96" stroke="#52e5ff" stroke-width="4" stroke-linecap="round" opacity="0.9" /><line x1="224.11" y1="170.96" x2="274.14" y2="182.12" stroke="#52e5ff" stroke-width="4" stroke-linecap="round" opacity="0.9" /><line x1="274.14" y1="182.12" x2="323.32" y2="189.09" stroke="#52e5ff" stroke-width="4" stroke-linecap="round" opacity="0.9" /><line x1="323.32" y1="189.09" x2="368.73" y2="191.48" stroke="#52e5ff" stroke-width="4" stroke-linecap="round" opacity="0.9" /><line x1="368.73" y1="191.48" x2="407.69" y2="189.19" stroke="#52e5ff" stroke-width="4" stroke-linecap="round" opacity="0.9" /><line x1="407.69" y1="189.19" x2="437.85" y2="182.33" stroke="#52e5ff" stroke-width="4" stroke-linecap="round" opacity="0.9" /><line x1="437.85" y1="182.33" x2="457.27" y2="171.26" stroke="#52e5ff" stroke-width="4" stroke-linecap="round" opacity="0.9" /><line x1="457.27" y1="171.26" x2="464.54" y2="156.56" stroke="#52e5ff" stroke-width="4" stroke-linecap="round" opacity="0.9" /><line x1="464.54" y1="156.56" x2="458.84" y2="139.09" stroke="#52e5ff" stroke-width="4" stroke-linecap="round" opacity="0.9" /><line x1="458.84" y1="139.09" x2="440.15" y2="119.89" stroke="#52e5ff" stroke-width="4" stroke-linecap="round" opacity="0.9" /><line x1="440.15" y1="119.89" x2="409.27" y2="100.22" stroke="#52e5ff" stroke-width="4" stroke-linecap="round" opacity="0.9" /><line x1="409.27" y1="100.22" x2="367.95" y2="81.44" stroke="#52e5ff" stroke-width="4" stroke-linecap="round" opacity="0.9" /><line x1="367.95" y1="81.44" x2="318.86" y2="64.95" stroke="#52e5ff" stroke-width="4" stroke-linecap="round" opacity="0.9" /><line x1="318.86" y1="64.95" x2="265.44" y2="52.06" stroke="#52e5ff" stroke-width="4" stroke-linecap="round" opacity="0.9" /><line x1="265.44" y1="52.06" x2="211.68" y2="43.83" stroke="#52e5ff" stroke-width="4" stroke-linecap="round" opacity="0.9" /><line x1="211.68" y1="43.83" x2="161.73" y2="40.96" stroke="#52e5ff" stroke-width="4" stroke-linecap="round" opacity="0.9" /><line x1="161.73" y1="40.96" x2="119.49" y2="43.70" stroke="#52e5ff" stroke-width="4" stroke-linecap="round" opacity="0.9" /><line x1="119.49" y1="43.70" x2="88.20" y2="51.82" stroke="#52e5ff" stroke-width="4" stroke-linecap="round" opacity="0.9" /><line x1="88.20" y1="51.82" x2="70.09" y2="64.61" stroke="#52e5ff" stroke-width="4" stroke-linecap="round" opacity="0.9" /><line x1="70.09" y1="64.61" x2="66.23" y2="81.03" stroke="#52e5ff" stroke-width="4" stroke-linecap="round" opacity="0.9" /></g>
</svg>